<svg xmlns="http://www.w3.org/2000/svg" viewBox="0 0 794 1123" width="210mm" height="297mm" font-family="Noto Sans CJK KR, sans-serif"><rect width="794" height="1123" fill="#FAF6EF"/><rect x="0" y="0" width="794" height="8" fill="#2E5AAC"/><text x="48" y="62" font-size="30" font-weight="800" fill="#2B2B2B" font-family="Noto Sans CJK KR, sans-serif">온음 운지 2</text><text x="48" y="90" font-size="16" fill="#8A8378" font-family="Noto Sans CJK KR, sans-serif">낮은 라(A4) → 높은 미(E6) · 반음 없이 도레미파솔라시</text><svg x="48" y="120" width="348" height="257" viewBox="0 0 460 340"><rect x="1" y="1" width="458" height="338" rx="18" fill="#FFFFFF" stroke="#ECE4D6" stroke-width="2"/><text x="22" y="46" font-size="38" font-weight="800" fill="#2B2B2B" font-family="Noto Sans CJK KR, sans-serif">솔</text><text x="24" y="70" font-size="17" fill="#8A8378" font-family="Noto Sans CJK KR, sans-serif">G5 · MIDI 79</text><text x="412" y="50" font-size="13" fill="#8A8378" text-anchor="end" font-family="Noto Sans CJK KR, sans-serif">입김</text><g transform="translate(300,58)"><rect x="0" y="0" width="16" height="16" rx="3" fill="#2E5AAC" stroke="#2E5AAC" stroke-width="1"/><rect x="22" y="0" width="16" height="16" rx="3" fill="#2E5AAC" stroke="#2E5AAC" stroke-width="1"/><rect x="44" y="0" width="16" height="16" rx="3" fill="#2E5AAC" stroke="#2E5AAC" stroke-width="1"/><rect x="66" y="0" width="16" height="16" rx="3" fill="#E7E0D4" stroke="#B0A89B" stroke-width="1"/><rect x="88" y="0" width="16" height="16" rx="3" fill="#E7E0D4" stroke="#B0A89B" stroke-width="1"/></g><text x="26" y="100" font-size="15" fill="#2E5AAC" font-weight="700" font-family="Noto Sans CJK KR, sans-serif">앞면</text><g transform="translate(28,104)"><svg xmlns="http://www.w3.org/2000/svg" viewBox="0 0 900 470" width="355" height="185"><defs><linearGradient id="g96207front" x1="0" y1="0" x2="0.15" y2="1"><stop offset="0" stop-color="#E7A877"/><stop offset="1" stop-color="#C97B4A"/></linearGradient><pattern id="h96207" width="6" height="6" patternTransform="rotate(45)" patternUnits="userSpaceOnUse"><rect width="6" height="6" fill="#E9E7E0"/><line x1="0" y1="0" x2="0" y2="6" stroke="#6B7A66" stroke-width="2"/></pattern></defs><path d="M 150 120 C 150 70 250 56 350 60 C 470 64 600 92 720 130 C 800 156 858 196 862 232 C 862 256 828 270 770 274 C 660 282 520 288 410 296 C 320 302 250 300 206 296 L 196 330 C 194 360 150 364 132 352 C 116 340 116 300 138 286 C 150 278 156 250 150 224 C 132 200 120 160 150 120 Z" fill="url(#g96207front)" stroke="#A2592E" stroke-width="3.5" stroke-linejoin="round"/><ellipse cx="330" cy="120" rx="180" ry="34" fill="#FFFFFF" opacity="0.14"/><circle cx="228" cy="150" r="13" fill="#FFFFFF" stroke="#B0A89B" stroke-width="2"/><circle cx="315" cy="126" r="17" fill="#FFFFFF" stroke="#B0A89B" stroke-width="2"/><circle cx="402" cy="114" r="19" fill="#E0407B" stroke="#00000022"/><circle cx="487" cy="118" r="18" fill="#E0407B" stroke="#00000022"/><circle cx="516" cy="166" r="8" fill="#E0407B" stroke="#00000022"/><circle cx="582" cy="178" r="19" fill="#FFFFFF" stroke="#B0A89B" stroke-width="2"/><circle cx="660" cy="190" r="18" fill="#FFFFFF" stroke="#B0A89B" stroke-width="2"/><circle cx="732" cy="200" r="15" fill="#FFFFFF" stroke="#B0A89B" stroke-width="2"/><circle cx="796" cy="206" r="13" fill="#FFFFFF" stroke="#B0A89B" stroke-width="2"/><circle cx="765" cy="242" r="8" fill="#FFFFFF" stroke="#B0A89B" stroke-width="2"/></svg></g><text x="300" y="218" font-size="14" fill="#2E5AAC" font-weight="700" font-family="Noto Sans CJK KR, sans-serif">뒷면</text><g transform="translate(298,222)"><svg xmlns="http://www.w3.org/2000/svg" viewBox="0 0 900 470" width="150" height="78"><defs><linearGradient id="g85429back" x1="0" y1="0" x2="0.15" y2="1"><stop offset="0" stop-color="#E7A877"/><stop offset="1" stop-color="#C97B4A"/></linearGradient><pattern id="h85429" width="6" height="6" patternTransform="rotate(45)" patternUnits="userSpaceOnUse"><rect width="6" height="6" fill="#E9E7E0"/><line x1="0" y1="0" x2="0" y2="6" stroke="#6B7A66" stroke-width="2"/></pattern></defs><path d="M 750 120 C 750 70 650 56 550 60 C 430 64 300 92 180 130 C 100 156 42 196 38 232 C 38 256 72 270 130 274 C 240 282 380 288 490 296 C 580 302 650 300 694 296 L 704 330 C 706 360 750 364 768 352 C 784 340 784 300 762 286 C 750 278 744 250 750 224 C 768 200 780 160 750 120 Z" fill="url(#g85429back)" stroke="#A2592E" stroke-width="3.5" stroke-linejoin="round"/><ellipse cx="560" cy="120" rx="180" ry="34" fill="#FFFFFF" opacity="0.14"/><ellipse cx="660" cy="268" rx="26" ry="12" fill="url(#h85429)" stroke="#6B7A66" stroke-width="2.5"/><circle cx="360" cy="224" r="19" fill="#37474F" stroke="#00000022"/><circle cx="606" cy="172" r="21" fill="#E0407B" stroke="#00000022"/></svg></g><text x="24" y="320" font-size="15.5" fill="#2B2B2B" font-family="Noto Sans CJK KR, sans-serif">왼손 약지(L4)까지 엽니다.</text></svg><svg x="414" y="120" width="348" height="257" viewBox="0 0 460 340"><rect x="1" y="1" width="458" height="338" rx="18" fill="#FFFFFF" stroke="#ECE4D6" stroke-width="2"/><text x="22" y="46" font-size="38" font-weight="800" fill="#2B2B2B" font-family="Noto Sans CJK KR, sans-serif">라</text><text x="24" y="70" font-size="17" fill="#8A8378" font-family="Noto Sans CJK KR, sans-serif">A5 · MIDI 81</text><text x="412" y="50" font-size="13" fill="#8A8378" text-anchor="end" font-family="Noto Sans CJK KR, sans-serif">입김</text><g transform="translate(300,58)"><rect x="0" y="0" width="16" height="16" rx="3" fill="#2E5AAC" stroke="#2E5AAC" stroke-width="1"/><rect x="22" y="0" width="16" height="16" rx="3" fill="#2E5AAC" stroke="#2E5AAC" stroke-width="1"/><rect x="44" y="0" width="16" height="16" rx="3" fill="#2E5AAC" stroke="#2E5AAC" stroke-width="1"/><rect x="66" y="0" width="16" height="16" rx="3" fill="#E7E0D4" stroke="#B0A89B" stroke-width="1"/><rect x="88" y="0" width="16" height="16" rx="3" fill="#E7E0D4" stroke="#B0A89B" stroke-width="1"/></g><text x="26" y="100" font-size="15" fill="#2E5AAC" font-weight="700" font-family="Noto Sans CJK KR, sans-serif">앞면</text><g transform="translate(28,104)"><svg xmlns="http://www.w3.org/2000/svg" viewBox="0 0 900 470" width="355" height="185"><defs><linearGradient id="g37189front" x1="0" y1="0" x2="0.15" y2="1"><stop offset="0" stop-color="#E7A877"/><stop offset="1" stop-color="#C97B4A"/></linearGradient><pattern id="h37189" width="6" height="6" patternTransform="rotate(45)" patternUnits="userSpaceOnUse"><rect width="6" height="6" fill="#E9E7E0"/><line x1="0" y1="0" x2="0" y2="6" stroke="#6B7A66" stroke-width="2"/></pattern></defs><path d="M 150 120 C 150 70 250 56 350 60 C 470 64 600 92 720 130 C 800 156 858 196 862 232 C 862 256 828 270 770 274 C 660 282 520 288 410 296 C 320 302 250 300 206 296 L 196 330 C 194 360 150 364 132 352 C 116 340 116 300 138 286 C 150 278 156 250 150 224 C 132 200 120 160 150 120 Z" fill="url(#g37189front)" stroke="#A2592E" stroke-width="3.5" stroke-linejoin="round"/><ellipse cx="330" cy="120" rx="180" ry="34" fill="#FFFFFF" opacity="0.14"/><circle cx="228" cy="150" r="13" fill="#FFFFFF" stroke="#B0A89B" stroke-width="2"/><circle cx="315" cy="126" r="17" fill="#FFFFFF" stroke="#B0A89B" stroke-width="2"/><circle cx="402" cy="114" r="19" fill="#FFFFFF" stroke="#B0A89B" stroke-width="2"/><circle cx="487" cy="118" r="18" fill="#E0407B" stroke="#00000022"/><circle cx="516" cy="166" r="8" fill="#E0407B" stroke="#00000022"/><circle cx="582" cy="178" r="19" fill="#FFFFFF" stroke="#B0A89B" stroke-width="2"/><circle cx="660" cy="190" r="18" fill="#FFFFFF" stroke="#B0A89B" stroke-width="2"/><circle cx="732" cy="200" r="15" fill="#FFFFFF" stroke="#B0A89B" stroke-width="2"/><circle cx="796" cy="206" r="13" fill="#FFFFFF" stroke="#B0A89B" stroke-width="2"/><circle cx="765" cy="242" r="8" fill="#FFFFFF" stroke="#B0A89B" stroke-width="2"/></svg></g><text x="300" y="218" font-size="14" fill="#2E5AAC" font-weight="700" font-family="Noto Sans CJK KR, sans-serif">뒷면</text><g transform="translate(298,222)"><svg xmlns="http://www.w3.org/2000/svg" viewBox="0 0 900 470" width="150" height="78"><defs><linearGradient id="g92682back" x1="0" y1="0" x2="0.15" y2="1"><stop offset="0" stop-color="#E7A877"/><stop offset="1" stop-color="#C97B4A"/></linearGradient><pattern id="h92682" width="6" height="6" patternTransform="rotate(45)" patternUnits="userSpaceOnUse"><rect width="6" height="6" fill="#E9E7E0"/><line x1="0" y1="0" x2="0" y2="6" stroke="#6B7A66" stroke-width="2"/></pattern></defs><path d="M 750 120 C 750 70 650 56 550 60 C 430 64 300 92 180 130 C 100 156 42 196 38 232 C 38 256 72 270 130 274 C 240 282 380 288 490 296 C 580 302 650 300 694 296 L 704 330 C 706 360 750 364 768 352 C 784 340 784 300 762 286 C 750 278 744 250 750 224 C 768 200 780 160 750 120 Z" fill="url(#g92682back)" stroke="#A2592E" stroke-width="3.5" stroke-linejoin="round"/><ellipse cx="560" cy="120" rx="180" ry="34" fill="#FFFFFF" opacity="0.14"/><ellipse cx="660" cy="268" rx="26" ry="12" fill="url(#h92682)" stroke="#6B7A66" stroke-width="2.5"/><circle cx="360" cy="224" r="19" fill="#37474F" stroke="#00000022"/><circle cx="606" cy="172" r="21" fill="#E0407B" stroke="#00000022"/></svg></g><text x="24" y="320" font-size="15.5" fill="#2B2B2B" font-family="Noto Sans CJK KR, sans-serif">왼손은 검지(L2)와 보조구멍만 남습니다.</text></svg><svg x="48" y="393" width="348" height="257" viewBox="0 0 460 340"><rect x="1" y="1" width="458" height="338" rx="18" fill="#FFFFFF" stroke="#ECE4D6" stroke-width="2"/><text x="22" y="46" font-size="38" font-weight="800" fill="#2B2B2B" font-family="Noto Sans CJK KR, sans-serif">시</text><text x="24" y="70" font-size="17" fill="#8A8378" font-family="Noto Sans CJK KR, sans-serif">B5 · MIDI 83</text><text x="412" y="50" font-size="13" fill="#8A8378" text-anchor="end" font-family="Noto Sans CJK KR, sans-serif">입김</text><g transform="translate(300,58)"><rect x="0" y="0" width="16" height="16" rx="3" fill="#2E5AAC" stroke="#2E5AAC" stroke-width="1"/><rect x="22" y="0" width="16" height="16" rx="3" fill="#2E5AAC" stroke="#2E5AAC" stroke-width="1"/><rect x="44" y="0" width="16" height="16" rx="3" fill="#2E5AAC" stroke="#2E5AAC" stroke-width="1"/><rect x="66" y="0" width="16" height="16" rx="3" fill="#2E5AAC" stroke="#2E5AAC" stroke-width="1"/><rect x="88" y="0" width="16" height="16" rx="3" fill="#E7E0D4" stroke="#B0A89B" stroke-width="1"/></g><text x="26" y="100" font-size="15" fill="#2E5AAC" font-weight="700" font-family="Noto Sans CJK KR, sans-serif">앞면</text><g transform="translate(28,104)"><svg xmlns="http://www.w3.org/2000/svg" viewBox="0 0 900 470" width="355" height="185"><defs><linearGradient id="g35238front" x1="0" y1="0" x2="0.15" y2="1"><stop offset="0" stop-color="#E7A877"/><stop offset="1" stop-color="#C97B4A"/></linearGradient><pattern id="h35238" width="6" height="6" patternTransform="rotate(45)" patternUnits="userSpaceOnUse"><rect width="6" height="6" fill="#E9E7E0"/><line x1="0" y1="0" x2="0" y2="6" stroke="#6B7A66" stroke-width="2"/></pattern></defs><path d="M 150 120 C 150 70 250 56 350 60 C 470 64 600 92 720 130 C 800 156 858 196 862 232 C 862 256 828 270 770 274 C 660 282 520 288 410 296 C 320 302 250 300 206 296 L 196 330 C 194 360 150 364 132 352 C 116 340 116 300 138 286 C 150 278 156 250 150 224 C 132 200 120 160 150 120 Z" fill="url(#g35238front)" stroke="#A2592E" stroke-width="3.5" stroke-linejoin="round"/><ellipse cx="330" cy="120" rx="180" ry="34" fill="#FFFFFF" opacity="0.14"/><circle cx="228" cy="150" r="13" fill="#FFFFFF" stroke="#B0A89B" stroke-width="2"/><circle cx="315" cy="126" r="17" fill="#FFFFFF" stroke="#B0A89B" stroke-width="2"/><circle cx="402" cy="114" r="19" fill="#FFFFFF" stroke="#B0A89B" stroke-width="2"/><circle cx="487" cy="118" r="18" fill="#FFFFFF" stroke="#B0A89B" stroke-width="2"/><circle cx="516" cy="166" r="8" fill="#FFFFFF" stroke="#B0A89B" stroke-width="2"/><circle cx="582" cy="178" r="19" fill="#FFFFFF" stroke="#B0A89B" stroke-width="2"/><circle cx="660" cy="190" r="18" fill="#FFFFFF" stroke="#B0A89B" stroke-width="2"/><circle cx="732" cy="200" r="15" fill="#FFFFFF" stroke="#B0A89B" stroke-width="2"/><circle cx="796" cy="206" r="13" fill="#FFFFFF" stroke="#B0A89B" stroke-width="2"/><circle cx="765" cy="242" r="8" fill="#FFFFFF" stroke="#B0A89B" stroke-width="2"/></svg></g><text x="300" y="218" font-size="14" fill="#2E5AAC" font-weight="700" font-family="Noto Sans CJK KR, sans-serif">뒷면</text><g transform="translate(298,222)"><svg xmlns="http://www.w3.org/2000/svg" viewBox="0 0 900 470" width="150" height="78"><defs><linearGradient id="g3802back" x1="0" y1="0" x2="0.15" y2="1"><stop offset="0" stop-color="#E7A877"/><stop offset="1" stop-color="#C97B4A"/></linearGradient><pattern id="h3802" width="6" height="6" patternTransform="rotate(45)" patternUnits="userSpaceOnUse"><rect width="6" height="6" fill="#E9E7E0"/><line x1="0" y1="0" x2="0" y2="6" stroke="#6B7A66" stroke-width="2"/></pattern></defs><path d="M 750 120 C 750 70 650 56 550 60 C 430 64 300 92 180 130 C 100 156 42 196 38 232 C 38 256 72 270 130 274 C 240 282 380 288 490 296 C 580 302 650 300 694 296 L 704 330 C 706 360 750 364 768 352 C 784 340 784 300 762 286 C 750 278 744 250 750 224 C 768 200 780 160 750 120 Z" fill="url(#g3802back)" stroke="#A2592E" stroke-width="3.5" stroke-linejoin="round"/><ellipse cx="560" cy="120" rx="180" ry="34" fill="#FFFFFF" opacity="0.14"/><ellipse cx="660" cy="268" rx="26" ry="12" fill="url(#h3802)" stroke="#6B7A66" stroke-width="2.5"/><circle cx="360" cy="224" r="19" fill="#37474F" stroke="#00000022"/><circle cx="606" cy="172" r="21" fill="#E0407B" stroke="#00000022"/></svg></g><text x="24" y="320" font-size="15.5" fill="#2B2B2B" font-family="Noto Sans CJK KR, sans-serif">앞면을 모두 열고 양손 엄지만 막습니다. 첫 소리 내기에 가장 쉬운 음!</text></svg><svg x="414" y="393" width="348" height="257" viewBox="0 0 460 340"><rect x="1" y="1" width="458" height="338" rx="18" fill="#FFFFFF" stroke="#ECE4D6" stroke-width="2"/><text x="22" y="46" font-size="38" font-weight="800" fill="#2B2B2B" font-family="Noto Sans CJK KR, sans-serif">높은 도</text><text x="24" y="70" font-size="17" fill="#8A8378" font-family="Noto Sans CJK KR, sans-serif">C6 · MIDI 84</text><text x="412" y="50" font-size="13" fill="#8A8378" text-anchor="end" font-family="Noto Sans CJK KR, sans-serif">입김</text><g transform="translate(300,58)"><rect x="0" y="0" width="16" height="16" rx="3" fill="#2E5AAC" stroke="#2E5AAC" stroke-width="1"/><rect x="22" y="0" width="16" height="16" rx="3" fill="#2E5AAC" stroke="#2E5AAC" stroke-width="1"/><rect x="44" y="0" width="16" height="16" rx="3" fill="#2E5AAC" stroke="#2E5AAC" stroke-width="1"/><rect x="66" y="0" width="16" height="16" rx="3" fill="#2E5AAC" stroke="#2E5AAC" stroke-width="1"/><rect x="88" y="0" width="16" height="16" rx="3" fill="#E7E0D4" stroke="#B0A89B" stroke-width="1"/></g><text x="26" y="100" font-size="15" fill="#2E5AAC" font-weight="700" font-family="Noto Sans CJK KR, sans-serif">앞면</text><g transform="translate(28,104)"><svg xmlns="http://www.w3.org/2000/svg" viewBox="0 0 900 470" width="355" height="185"><defs><linearGradient id="g4273front" x1="0" y1="0" x2="0.15" y2="1"><stop offset="0" stop-color="#E7A877"/><stop offset="1" stop-color="#C97B4A"/></linearGradient><pattern id="h4273" width="6" height="6" patternTransform="rotate(45)" patternUnits="userSpaceOnUse"><rect width="6" height="6" fill="#E9E7E0"/><line x1="0" y1="0" x2="0" y2="6" stroke="#6B7A66" stroke-width="2"/></pattern></defs><path d="M 150 120 C 150 70 250 56 350 60 C 470 64 600 92 720 130 C 800 156 858 196 862 232 C 862 256 828 270 770 274 C 660 282 520 288 410 296 C 320 302 250 300 206 296 L 196 330 C 194 360 150 364 132 352 C 116 340 116 300 138 286 C 150 278 156 250 150 224 C 132 200 120 160 150 120 Z" fill="url(#g4273front)" stroke="#A2592E" stroke-width="3.5" stroke-linejoin="round"/><ellipse cx="330" cy="120" rx="180" ry="34" fill="#FFFFFF" opacity="0.14"/><circle cx="228" cy="150" r="13" fill="#FFFFFF" stroke="#B0A89B" stroke-width="2"/><circle cx="315" cy="126" r="17" fill="#FFFFFF" stroke="#B0A89B" stroke-width="2"/><circle cx="402" cy="114" r="19" fill="#FFFFFF" stroke="#B0A89B" stroke-width="2"/><circle cx="487" cy="118" r="18" fill="#FFFFFF" stroke="#B0A89B" stroke-width="2"/><circle cx="516" cy="166" r="8" fill="#FFFFFF" stroke="#B0A89B" stroke-width="2"/><circle cx="582" cy="178" r="19" fill="#FFFFFF" stroke="#B0A89B" stroke-width="2"/><circle cx="660" cy="190" r="18" fill="#FFFFFF" stroke="#B0A89B" stroke-width="2"/><circle cx="732" cy="200" r="15" fill="#FFFFFF" stroke="#B0A89B" stroke-width="2"/><circle cx="796" cy="206" r="13" fill="#FFFFFF" stroke="#B0A89B" stroke-width="2"/><circle cx="765" cy="242" r="8" fill="#FFFFFF" stroke="#B0A89B" stroke-width="2"/></svg></g><text x="300" y="218" font-size="14" fill="#2E5AAC" font-weight="700" font-family="Noto Sans CJK KR, sans-serif">뒷면</text><g transform="translate(298,222)"><svg xmlns="http://www.w3.org/2000/svg" viewBox="0 0 900 470" width="150" height="78"><defs><linearGradient id="g16610back" x1="0" y1="0" x2="0.15" y2="1"><stop offset="0" stop-color="#E7A877"/><stop offset="1" stop-color="#C97B4A"/></linearGradient><pattern id="h16610" width="6" height="6" patternTransform="rotate(45)" patternUnits="userSpaceOnUse"><rect width="6" height="6" fill="#E9E7E0"/><line x1="0" y1="0" x2="0" y2="6" stroke="#6B7A66" stroke-width="2"/></pattern></defs><path d="M 750 120 C 750 70 650 56 550 60 C 430 64 300 92 180 130 C 100 156 42 196 38 232 C 38 256 72 270 130 274 C 240 282 380 288 490 296 C 580 302 650 300 694 296 L 704 330 C 706 360 750 364 768 352 C 784 340 784 300 762 286 C 750 278 744 250 750 224 C 768 200 780 160 750 120 Z" fill="url(#g16610back)" stroke="#A2592E" stroke-width="3.5" stroke-linejoin="round"/><ellipse cx="560" cy="120" rx="180" ry="34" fill="#FFFFFF" opacity="0.14"/><ellipse cx="660" cy="268" rx="26" ry="12" fill="url(#h16610)" stroke="#6B7A66" stroke-width="2.5"/><circle cx="360" cy="224" r="19" fill="#FFFFFF" stroke="#B0A89B" stroke-width="2"/><circle cx="606" cy="172" r="21" fill="#E0407B" stroke="#00000022"/></svg></g><text x="24" y="320" font-size="15.5" fill="#2B2B2B" font-family="Noto Sans CJK KR, sans-serif">오른손 엄지(RT)를 떼고 왼손 엄지만 막습니다.</text></svg><svg x="48" y="666" width="348" height="257" viewBox="0 0 460 340"><rect x="1" y="1" width="458" height="338" rx="18" fill="#FFFFFF" stroke="#ECE4D6" stroke-width="2"/><text x="22" y="46" font-size="38" font-weight="800" fill="#2B2B2B" font-family="Noto Sans CJK KR, sans-serif">높은 레</text><text x="24" y="70" font-size="17" fill="#8A8378" font-family="Noto Sans CJK KR, sans-serif">D6 · MIDI 86</text><text x="412" y="50" font-size="13" fill="#8A8378" text-anchor="end" font-family="Noto Sans CJK KR, sans-serif">입김</text><g transform="translate(300,58)"><rect x="0" y="0" width="16" height="16" rx="3" fill="#2E5AAC" stroke="#2E5AAC" stroke-width="1"/><rect x="22" y="0" width="16" height="16" rx="3" fill="#2E5AAC" stroke="#2E5AAC" stroke-width="1"/><rect x="44" y="0" width="16" height="16" rx="3" fill="#2E5AAC" stroke="#2E5AAC" stroke-width="1"/><rect x="66" y="0" width="16" height="16" rx="3" fill="#2E5AAC" stroke="#2E5AAC" stroke-width="1"/><rect x="88" y="0" width="16" height="16" rx="3" fill="#2E5AAC" stroke="#2E5AAC" stroke-width="1"/></g><text x="26" y="100" font-size="15" fill="#2E5AAC" font-weight="700" font-family="Noto Sans CJK KR, sans-serif">앞면</text><g transform="translate(28,104)"><svg xmlns="http://www.w3.org/2000/svg" viewBox="0 0 900 470" width="355" height="185"><defs><linearGradient id="g65636front" x1="0" y1="0" x2="0.15" y2="1"><stop offset="0" stop-color="#E7A877"/><stop offset="1" stop-color="#C97B4A"/></linearGradient><pattern id="h65636" width="6" height="6" patternTransform="rotate(45)" patternUnits="userSpaceOnUse"><rect width="6" height="6" fill="#E9E7E0"/><line x1="0" y1="0" x2="0" y2="6" stroke="#6B7A66" stroke-width="2"/></pattern></defs><path d="M 150 120 C 150 70 250 56 350 60 C 470 64 600 92 720 130 C 800 156 858 196 862 232 C 862 256 828 270 770 274 C 660 282 520 288 410 296 C 320 302 250 300 206 296 L 196 330 C 194 360 150 364 132 352 C 116 340 116 300 138 286 C 150 278 156 250 150 224 C 132 200 120 160 150 120 Z" fill="url(#g65636front)" stroke="#A2592E" stroke-width="3.5" stroke-linejoin="round"/><ellipse cx="330" cy="120" rx="180" ry="34" fill="#FFFFFF" opacity="0.14"/><circle cx="228" cy="150" r="13" fill="#FFFFFF" stroke="#B0A89B" stroke-width="2"/><circle cx="315" cy="126" r="17" fill="#FFFFFF" stroke="#B0A89B" stroke-width="2"/><circle cx="402" cy="114" r="19" fill="#FFFFFF" stroke="#B0A89B" stroke-width="2"/><circle cx="487" cy="118" r="18" fill="#FFFFFF" stroke="#B0A89B" stroke-width="2"/><circle cx="516" cy="166" r="8" fill="#FFFFFF" stroke="#B0A89B" stroke-width="2"/><circle cx="582" cy="178" r="19" fill="#FFFFFF" stroke="#B0A89B" stroke-width="2"/><circle cx="660" cy="190" r="18" fill="#FFFFFF" stroke="#B0A89B" stroke-width="2"/><circle cx="732" cy="200" r="15" fill="#FFFFFF" stroke="#B0A89B" stroke-width="2"/><circle cx="796" cy="206" r="13" fill="#FFFFFF" stroke="#B0A89B" stroke-width="2"/><circle cx="765" cy="242" r="8" fill="#FFFFFF" stroke="#B0A89B" stroke-width="2"/></svg></g><text x="300" y="218" font-size="14" fill="#2E5AAC" font-weight="700" font-family="Noto Sans CJK KR, sans-serif">뒷면</text><g transform="translate(298,222)"><svg xmlns="http://www.w3.org/2000/svg" viewBox="0 0 900 470" width="150" height="78"><defs><linearGradient id="g23616back" x1="0" y1="0" x2="0.15" y2="1"><stop offset="0" stop-color="#E7A877"/><stop offset="1" stop-color="#C97B4A"/></linearGradient><pattern id="h23616" width="6" height="6" patternTransform="rotate(45)" patternUnits="userSpaceOnUse"><rect width="6" height="6" fill="#E9E7E0"/><line x1="0" y1="0" x2="0" y2="6" stroke="#6B7A66" stroke-width="2"/></pattern></defs><path d="M 750 120 C 750 70 650 56 550 60 C 430 64 300 92 180 130 C 100 156 42 196 38 232 C 38 256 72 270 130 274 C 240 282 380 288 490 296 C 580 302 650 300 694 296 L 704 330 C 706 360 750 364 768 352 C 784 340 784 300 762 286 C 750 278 744 250 750 224 C 768 200 780 160 750 120 Z" fill="url(#g23616back)" stroke="#A2592E" stroke-width="3.5" stroke-linejoin="round"/><ellipse cx="560" cy="120" rx="180" ry="34" fill="#FFFFFF" opacity="0.14"/><ellipse cx="660" cy="268" rx="26" ry="12" fill="url(#h23616)" stroke="#6B7A66" stroke-width="2.5"/><circle cx="360" cy="224" r="19" fill="#FFFFFF" stroke="#B0A89B" stroke-width="2"/><circle cx="606" cy="172" r="21" fill="#FFFFFF" stroke="#B0A89B" stroke-width="2"/></svg></g><text x="24" y="320" font-size="15.5" fill="#2B2B2B" font-family="Noto Sans CJK KR, sans-serif">모든 구멍을 엽니다. 엄지는 옆면을 받쳐 균형을 잡으세요.</text></svg><svg x="414" y="666" width="348" height="257" viewBox="0 0 460 340"><rect x="1" y="1" width="458" height="338" rx="18" fill="#FFFFFF" stroke="#ECE4D6" stroke-width="2"/><text x="22" y="46" font-size="38" font-weight="800" fill="#2B2B2B" font-family="Noto Sans CJK KR, sans-serif">높은 미</text><text x="24" y="70" font-size="17" fill="#8A8378" font-family="Noto Sans CJK KR, sans-serif">E6 · MIDI 88</text><rect x="332" y="14" width="58" height="26" rx="13" fill="#B23A48"/><text x="361" y="32" font-size="16" text-anchor="middle" fill="#fff" font-weight="700" font-family="Noto Sans CJK KR, sans-serif">고급</text><text x="412" y="50" font-size="13" fill="#8A8378" text-anchor="end" font-family="Noto Sans CJK KR, sans-serif">입김</text><g transform="translate(300,58)"><rect x="0" y="0" width="16" height="16" rx="3" fill="#2E5AAC" stroke="#2E5AAC" stroke-width="1"/><rect x="22" y="0" width="16" height="16" rx="3" fill="#2E5AAC" stroke="#2E5AAC" stroke-width="1"/><rect x="44" y="0" width="16" height="16" rx="3" fill="#2E5AAC" stroke="#2E5AAC" stroke-width="1"/><rect x="66" y="0" width="16" height="16" rx="3" fill="#2E5AAC" stroke="#2E5AAC" stroke-width="1"/><rect x="88" y="0" width="16" height="16" rx="3" fill="#2E5AAC" stroke="#2E5AAC" stroke-width="1"/></g><text x="26" y="100" font-size="15" fill="#2E5AAC" font-weight="700" font-family="Noto Sans CJK KR, sans-serif">앞면</text><g transform="translate(28,104)"><svg xmlns="http://www.w3.org/2000/svg" viewBox="0 0 900 470" width="355" height="185"><defs><linearGradient id="g65636front" x1="0" y1="0" x2="0.15" y2="1"><stop offset="0" stop-color="#E7A877"/><stop offset="1" stop-color="#C97B4A"/></linearGradient><pattern id="h65636" width="6" height="6" patternTransform="rotate(45)" patternUnits="userSpaceOnUse"><rect width="6" height="6" fill="#E9E7E0"/><line x1="0" y1="0" x2="0" y2="6" stroke="#6B7A66" stroke-width="2"/></pattern></defs><path d="M 150 120 C 150 70 250 56 350 60 C 470 64 600 92 720 130 C 800 156 858 196 862 232 C 862 256 828 270 770 274 C 660 282 520 288 410 296 C 320 302 250 300 206 296 L 196 330 C 194 360 150 364 132 352 C 116 340 116 300 138 286 C 150 278 156 250 150 224 C 132 200 120 160 150 120 Z" fill="url(#g65636front)" stroke="#A2592E" stroke-width="3.5" stroke-linejoin="round"/><ellipse cx="330" cy="120" rx="180" ry="34" fill="#FFFFFF" opacity="0.14"/><circle cx="228" cy="150" r="13" fill="#FFFFFF" stroke="#B0A89B" stroke-width="2"/><circle cx="315" cy="126" r="17" fill="#FFFFFF" stroke="#B0A89B" stroke-width="2"/><circle cx="402" cy="114" r="19" fill="#FFFFFF" stroke="#B0A89B" stroke-width="2"/><circle cx="487" cy="118" r="18" fill="#FFFFFF" stroke="#B0A89B" stroke-width="2"/><circle cx="516" cy="166" r="8" fill="#FFFFFF" stroke="#B0A89B" stroke-width="2"/><circle cx="582" cy="178" r="19" fill="#FFFFFF" stroke="#B0A89B" stroke-width="2"/><circle cx="660" cy="190" r="18" fill="#FFFFFF" stroke="#B0A89B" stroke-width="2"/><circle cx="732" cy="200" r="15" fill="#FFFFFF" stroke="#B0A89B" stroke-width="2"/><circle cx="796" cy="206" r="13" fill="#FFFFFF" stroke="#B0A89B" stroke-width="2"/><circle cx="765" cy="242" r="8" fill="#FFFFFF" stroke="#B0A89B" stroke-width="2"/></svg></g><text x="300" y="218" font-size="14" fill="#2E5AAC" font-weight="700" font-family="Noto Sans CJK KR, sans-serif">뒷면</text><g transform="translate(298,222)"><svg xmlns="http://www.w3.org/2000/svg" viewBox="0 0 900 470" width="150" height="78"><defs><linearGradient id="g23616back" x1="0" y1="0" x2="0.15" y2="1"><stop offset="0" stop-color="#E7A877"/><stop offset="1" stop-color="#C97B4A"/></linearGradient><pattern id="h23616" width="6" height="6" patternTransform="rotate(45)" patternUnits="userSpaceOnUse"><rect width="6" height="6" fill="#E9E7E0"/><line x1="0" y1="0" x2="0" y2="6" stroke="#6B7A66" stroke-width="2"/></pattern></defs><path d="M 750 120 C 750 70 650 56 550 60 C 430 64 300 92 180 130 C 100 156 42 196 38 232 C 38 256 72 270 130 274 C 240 282 380 288 490 296 C 580 302 650 300 694 296 L 704 330 C 706 360 750 364 768 352 C 784 340 784 300 762 286 C 750 278 744 250 750 224 C 768 200 780 160 750 120 Z" fill="url(#g23616back)" stroke="#A2592E" stroke-width="3.5" stroke-linejoin="round"/><ellipse cx="560" cy="120" rx="180" ry="34" fill="#FFFFFF" opacity="0.14"/><ellipse cx="660" cy="268" rx="26" ry="12" fill="url(#h23616)" stroke="#6B7A66" stroke-width="2.5"/><circle cx="360" cy="224" r="19" fill="#FFFFFF" stroke="#B0A89B" stroke-width="2"/><circle cx="606" cy="172" r="21" fill="#FFFFFF" stroke="#B0A89B" stroke-width="2"/></svg></g><text x="24" y="320" font-size="15.5" fill="#2B2B2B" font-family="Noto Sans CJK KR, sans-serif">12공 최고 음역. 입김 각도를 살짝 올리고 빠른 호흡으로.</text></svg><text x="48" y="1095" font-size="12" fill="#8A8378" font-family="Noto Sans CJK KR, sans-serif">오카리나 종류별 운지표 · 12공 알토 C</text><text x="746" y="1095" font-size="12" fill="#8A8378" text-anchor="end" font-family="Noto Sans CJK KR, sans-serif">3 / 6</text></svg>